<svg width="190" height="54" viewBox="0 0 190 54" fill="none" xmlns="http://www.w3.org/2000/svg">
<path d="M48.0972 20.164V40H43.9932V37.66C43.3452 38.476 42.4932 39.124 41.4372 39.604C40.4052 40.06 39.3012 40.288 38.1252 40.288C36.5652 40.288 35.1612 39.964 33.9132 39.316C32.6892 38.668 31.7172 37.708 30.9972 36.436C30.3012 35.164 29.9532 33.628 29.9532 31.828V20.164H34.0212V31.216C34.0212 32.992 34.4652 34.36 35.3532 35.32C36.2412 36.256 37.4532 36.724 38.9892 36.724C40.5252 36.724 41.7372 36.256 42.6252 35.32C43.5372 34.36 43.9932 32.992 43.9932 31.216V20.164H48.0972ZM55.6001 17.536C54.8561 17.536 54.2321 17.284 53.7281 16.78C53.2241 16.276 52.9721 15.652 52.9721 14.908C52.9721 14.164 53.2241 13.54 53.7281 13.036C54.2321 12.532 54.8561 12.28 55.6001 12.28C56.3201 12.28 56.9321 12.532 57.4361 13.036C57.9401 13.54 58.1921 14.164 58.1921 14.908C58.1921 15.652 57.9401 16.276 57.4361 16.78C56.9321 17.284 56.3201 17.536 55.6001 17.536ZM57.6161 20.164V40H53.5121V20.164H57.6161ZM66.6402 36.652H75.6402V40H61.8882V36.652L70.9242 23.512H61.8882V20.164H75.6402V23.512L66.6402 36.652Z" fill="#535050"/>
<path d="M21.204 44.428L17.388 39.856C16.332 40.12 15.252 40.252 14.148 40.252C11.796 40.252 9.636 39.7 7.668 38.596C5.7 37.492 4.14 35.968 2.988 34.024C1.836 32.056 1.26 29.836 1.26 27.364C1.26 24.916 1.836 22.72 2.988 20.776C4.14 18.808 5.7 17.272 7.668 16.168C9.636 15.064 11.796 14.512 14.148 14.512C16.524 14.512 18.684 15.064 20.628 16.168C22.596 17.272 24.144 18.808 25.272 20.776C26.424 22.72 27 24.916 27 27.364C27 29.596 26.52 31.636 25.56 33.484C24.624 35.308 23.34 36.796 21.708 37.948L27.468 44.428H21.204ZM6.444 27.364C6.444 29.044 6.768 30.52 7.416 31.792C8.064 33.064 8.964 34.048 10.116 34.744C11.292 35.416 12.636 35.752 14.148 35.752C15.66 35.752 16.992 35.416 18.144 34.744C19.296 34.048 20.196 33.064 20.844 31.792C21.492 30.52 21.816 29.044 21.816 27.364C21.816 25.684 21.492 24.22 20.844 22.972C20.196 21.7 19.296 20.728 18.144 20.056C16.992 19.384 15.66 19.048 14.148 19.048C12.636 19.048 11.292 19.384 10.116 20.056C8.964 20.728 8.064 21.7 7.416 22.972C6.768 24.22 6.444 25.684 6.444 27.364Z" fill="#6066D0"/>
<path d="M85.7593 36.004H94.0393V40H80.7193V14.872H85.7593V36.004ZM99.7987 17.68C98.9107 17.68 98.1667 17.404 97.5667 16.852C96.9907 16.276 96.7027 15.568 96.7027 14.728C96.7027 13.888 96.9907 13.192 97.5667 12.64C98.1667 12.064 98.9107 11.776 99.7987 11.776C100.687 11.776 101.419 12.064 101.995 12.64C102.595 13.192 102.895 13.888 102.895 14.728C102.895 15.568 102.595 16.276 101.995 16.852C101.419 17.404 100.687 17.68 99.7987 17.68ZM102.283 20.056V40H97.2427V20.056H102.283ZM112.302 22.972C112.95 22.012 113.838 21.232 114.966 20.632C116.118 20.032 117.426 19.732 118.89 19.732C120.594 19.732 122.13 20.152 123.498 20.992C124.89 21.832 125.982 23.032 126.774 24.592C127.59 26.128 127.998 27.916 127.998 29.956C127.998 31.996 127.59 33.808 126.774 35.392C125.982 36.952 124.89 38.164 123.498 39.028C122.13 39.892 120.594 40.324 118.89 40.324C117.402 40.324 116.094 40.036 114.966 39.46C113.862 38.86 112.974 38.092 112.302 37.156V40H107.262V13.36H112.302V22.972ZM122.85 29.956C122.85 28.756 122.598 27.724 122.094 26.86C121.614 25.972 120.966 25.3 120.15 24.844C119.358 24.388 118.494 24.16 117.558 24.16C116.646 24.16 115.782 24.4 114.966 24.88C114.174 25.336 113.526 26.008 113.022 26.896C112.542 27.784 112.302 28.828 112.302 30.028C112.302 31.228 112.542 32.272 113.022 33.16C113.526 34.048 114.174 34.732 114.966 35.212C115.782 35.668 116.646 35.896 117.558 35.896C118.494 35.896 119.358 35.656 120.15 35.176C120.966 34.696 121.614 34.012 122.094 33.124C122.598 32.236 122.85 31.18 122.85 29.956ZM136.701 23.152C137.349 22.096 138.189 21.268 139.221 20.668C140.277 20.068 141.477 19.768 142.821 19.768V25.06H141.489C139.905 25.06 138.705 25.432 137.889 26.176C137.097 26.92 136.701 28.216 136.701 30.064V40H131.661V20.056H136.701V23.152ZM144.919 29.956C144.919 27.94 145.315 26.152 146.107 24.592C146.923 23.032 148.015 21.832 149.383 20.992C150.775 20.152 152.323 19.732 154.027 19.732C155.515 19.732 156.811 20.032 157.915 20.632C159.043 21.232 159.943 21.988 160.615 22.9V20.056H165.691V40H160.615V37.084C159.967 38.02 159.067 38.8 157.915 39.424C156.787 40.024 155.479 40.324 153.991 40.324C152.311 40.324 150.775 39.892 149.383 39.028C148.015 38.164 146.923 36.952 146.107 35.392C145.315 33.808 144.919 31.996 144.919 29.956ZM160.615 30.028C160.615 28.804 160.375 27.76 159.895 26.896C159.415 26.008 158.767 25.336 157.951 24.88C157.135 24.4 156.259 24.16 155.323 24.16C154.387 24.16 153.523 24.388 152.731 24.844C151.939 25.3 151.291 25.972 150.787 26.86C150.307 27.724 150.067 28.756 150.067 29.956C150.067 31.156 150.307 32.212 150.787 33.124C151.291 34.012 151.939 34.696 152.731 35.176C153.547 35.656 154.411 35.896 155.323 35.896C156.259 35.896 157.135 35.668 157.951 35.212C158.767 34.732 159.415 34.06 159.895 33.196C160.375 32.308 160.615 31.252 160.615 30.028ZM178.246 40.324C176.614 40.324 175.15 40.036 173.854 39.46C172.558 38.86 171.526 38.056 170.758 37.048C170.014 36.04 169.606 34.924 169.534 33.7H174.61C174.706 34.468 175.078 35.104 175.726 35.608C176.398 36.112 177.226 36.364 178.21 36.364C179.17 36.364 179.914 36.172 180.442 35.788C180.994 35.404 181.27 34.912 181.27 34.312C181.27 33.664 180.934 33.184 180.262 32.872C179.614 32.536 178.57 32.176 177.13 31.792C175.642 31.432 174.418 31.06 173.458 30.676C172.522 30.292 171.706 29.704 171.01 28.912C170.338 28.12 170.002 27.052 170.002 25.708C170.002 24.604 170.314 23.596 170.938 22.684C171.586 21.772 172.498 21.052 173.674 20.524C174.874 19.996 176.278 19.732 177.886 19.732C180.262 19.732 182.158 20.332 183.574 21.532C184.99 22.708 185.77 24.304 185.914 26.32H181.09C181.018 25.528 180.682 24.904 180.082 24.448C179.506 23.968 178.726 23.728 177.742 23.728C176.83 23.728 176.122 23.896 175.618 24.232C175.138 24.568 174.898 25.036 174.898 25.636C174.898 26.308 175.234 26.824 175.906 27.184C176.578 27.52 177.622 27.868 179.038 28.228C180.478 28.588 181.666 28.96 182.602 29.344C183.538 29.728 184.342 30.328 185.014 31.144C185.71 31.936 186.07 32.992 186.094 34.312C186.094 35.464 185.77 36.496 185.122 37.408C184.498 38.32 183.586 39.04 182.386 39.568C181.21 40.072 179.83 40.324 178.246 40.324Z" fill="#FCA82F"/>
</svg>
